<svg width="43" height="13" viewBox="0 0 43 13" fill="none" xmlns="http://www.w3.org/2000/svg">
<path d="M6.916 10.012H2.954L2.254 12H0.168L3.808 2.228H6.062L9.688 12H7.602L6.916 10.012ZM6.384 8.514L4.928 4.342L3.472 8.514H6.384ZM13.8314 4.146C14.8301 4.146 15.6608 4.41667 16.3234 4.958C16.9954 5.49933 17.4154 6.23667 17.5834 7.17H15.4974C15.4134 6.75933 15.2221 6.43733 14.9234 6.204C14.6248 5.96133 14.2468 5.84 13.7894 5.84C13.2668 5.84 12.8281 6.036 12.4734 6.428C12.1281 6.81067 11.9554 7.37533 11.9554 8.122C11.9554 8.86867 12.1281 9.438 12.4734 9.83C12.8281 10.2127 13.2668 10.404 13.7894 10.404C14.2468 10.404 14.6248 10.2873 14.9234 10.054C15.2221 9.81133 15.4134 9.48467 15.4974 9.074H17.5834C17.4154 10.0073 16.9954 10.7447 16.3234 11.286C15.6608 11.8273 14.8301 12.098 13.8314 12.098C13.0754 12.098 12.4034 11.9393 11.8154 11.622C11.2274 11.2953 10.7701 10.8333 10.4434 10.236C10.1168 9.63867 9.95342 8.934 9.95342 8.122C9.95342 7.31 10.1168 6.60533 10.4434 6.008C10.7701 5.40133 11.2274 4.93933 11.8154 4.622C12.4034 4.30467 13.0754 4.146 13.8314 4.146ZM22.722 10.306V12H21.686C20.818 12 20.1507 11.79 19.684 11.37C19.2267 10.95 18.998 10.25 18.998 9.27V5.91H17.92V4.244H18.998V2.326H20.972V4.244H22.708V5.91H20.972V9.298C20.972 9.67133 21.0467 9.93267 21.196 10.082C21.3454 10.2313 21.5974 10.306 21.952 10.306H22.722ZM23.5105 2.018C23.5105 1.70067 23.6225 1.444 23.8465 1.248C24.0705 1.04267 24.3645 0.94 24.7285 0.94C25.0925 0.94 25.3865 1.04267 25.6105 1.248C25.8345 1.444 25.9465 1.70067 25.9465 2.018C25.9465 2.326 25.8345 2.58267 25.6105 2.788C25.3865 2.984 25.0925 3.082 24.7285 3.082C24.3645 3.082 24.0705 2.984 23.8465 2.788C23.6225 2.58267 23.5105 2.326 23.5105 2.018ZM25.7085 4.244V12H23.7345V4.244H25.7085ZM30.4603 10.026L32.4203 4.244H34.5203L31.6503 12H29.2423L26.3723 4.244H28.4863L30.4603 10.026ZM42.5035 7.828C42.5035 8.024 42.4802 8.248 42.4335 8.5H36.7495C36.7775 9.19067 36.9642 9.69933 37.3095 10.026C37.6548 10.3527 38.0842 10.516 38.5975 10.516C39.0548 10.516 39.4328 10.404 39.7315 10.18C40.0395 9.956 40.2355 9.65267 40.3195 9.27H42.4055C42.3028 9.81133 42.0835 10.2967 41.7475 10.726C41.4115 11.1553 40.9775 11.4913 40.4455 11.734C39.9228 11.9767 39.3395 12.098 38.6955 12.098C37.9395 12.098 37.2675 11.9393 36.6795 11.622C36.0915 11.2953 35.6342 10.8333 35.3075 10.236C34.9808 9.63867 34.8175 8.934 34.8175 8.122C34.8175 7.31 34.9808 6.60533 35.3075 6.008C35.6342 5.40133 36.0915 4.93933 36.6795 4.622C37.2675 4.30467 37.9395 4.146 38.6955 4.146C39.4608 4.146 40.1282 4.30467 40.6975 4.622C41.2762 4.93933 41.7195 5.378 42.0275 5.938C42.3448 6.48867 42.5035 7.11867 42.5035 7.828ZM40.5155 7.632C40.5435 6.99733 40.3755 6.51667 40.0115 6.19C39.6568 5.86333 39.2182 5.7 38.6955 5.7C38.1635 5.7 37.7155 5.86333 37.3515 6.19C36.9875 6.51667 36.7868 6.99733 36.7495 7.632H40.5155Z" fill="#23853B"/>
</svg>
