<svg width="26" height="12" viewBox="0 0 26 12" fill="none" xmlns="http://www.w3.org/2000/svg">
<path d="M2.562 2.404V5.4H6.202V6.632H2.562V9.698H6.622V11H0.966V1.116H6.622V2.404H2.562ZM11.2651 3.188C11.9651 3.188 12.5624 3.36067 13.0571 3.706C13.5517 4.05133 13.8971 4.50867 14.0931 5.078V0.64H15.7031V11H14.0931V9.208C13.8971 9.77733 13.5517 10.2347 13.0571 10.58C12.5624 10.9253 11.9651 11.098 11.2651 11.098C10.5931 11.098 9.99108 10.9393 9.45908 10.622C8.93641 10.3047 8.52574 9.84733 8.22708 9.25C7.92841 8.65267 7.77908 7.948 7.77908 7.136C7.77908 6.33333 7.92841 5.63333 8.22708 5.036C8.52574 4.43867 8.93641 3.98133 9.45908 3.664C9.99108 3.34667 10.5931 3.188 11.2651 3.188ZM11.7551 4.588C11.0457 4.588 10.4764 4.81667 10.0471 5.274C9.62708 5.722 9.41708 6.34267 9.41708 7.136C9.41708 7.92933 9.62708 8.55467 10.0471 9.012C10.4764 9.46 11.0457 9.684 11.7551 9.684C12.2031 9.684 12.6044 9.58133 12.9591 9.376C13.3137 9.16133 13.5937 8.86267 13.7991 8.48C14.0044 8.09733 14.1071 7.64933 14.1071 7.136C14.1071 6.632 14.0044 6.18867 13.7991 5.806C13.5937 5.414 13.3137 5.11533 12.9591 4.91C12.6044 4.69533 12.2031 4.588 11.7551 4.588ZM17.3943 1.046C17.3943 0.775333 17.4877 0.551333 17.6743 0.373999C17.861 0.196666 18.1083 0.107999 18.4163 0.107999C18.7243 0.107999 18.9717 0.196666 19.1583 0.373999C19.3543 0.551333 19.4523 0.775333 19.4523 1.046C19.4523 1.31667 19.3543 1.536 19.1583 1.704C18.9717 1.872 18.7243 1.956 18.4163 1.956C18.1083 1.956 17.861 1.872 17.6743 1.704C17.4877 1.536 17.3943 1.31667 17.3943 1.046ZM19.2143 3.286V11H17.6183V3.286H19.2143ZM25.0237 9.614V11H24.0437C23.2224 11 22.597 10.804 22.1677 10.412C21.7477 10.0107 21.5377 9.348 21.5377 8.424V4.644H20.4317V3.286H21.5377V1.368H23.1477V3.286H25.0097V4.644H23.1477V8.452C23.1477 8.89067 23.227 9.194 23.3857 9.362C23.5537 9.53 23.843 9.614 24.2537 9.614H25.0237Z" fill="#23853B"/>
</svg>
