<svg width="28" height="12" viewBox="0 0 28 12" fill="none" xmlns="http://www.w3.org/2000/svg">
<path d="M6.86 8.858H2.688L1.932 11H0.224L3.864 1.27H5.698L9.324 11H7.616L6.86 8.858ZM6.412 7.626L4.774 3.006L3.136 7.626H6.412ZM13.603 3.188C14.303 3.188 14.9003 3.36067 15.395 3.706C15.8896 4.05133 16.235 4.50867 16.431 5.078V0.64H18.041V11H16.431V9.208C16.235 9.77733 15.8896 10.2347 15.395 10.58C14.9003 10.9253 14.303 11.098 13.603 11.098C12.931 11.098 12.329 10.9393 11.797 10.622C11.2743 10.3047 10.8636 9.84733 10.565 9.25C10.2663 8.65267 10.117 7.948 10.117 7.136C10.117 6.33333 10.2663 5.63333 10.565 5.036C10.8636 4.43867 11.2743 3.98133 11.797 3.664C12.329 3.34667 12.931 3.188 13.603 3.188ZM14.093 4.588C13.3836 4.588 12.8143 4.81667 12.385 5.274C11.965 5.722 11.755 6.34267 11.755 7.136C11.755 7.92933 11.965 8.55467 12.385 9.012C12.8143 9.46 13.3836 9.684 14.093 9.684C14.541 9.684 14.9423 9.58133 15.297 9.376C15.6516 9.16133 15.9316 8.86267 16.137 8.48C16.3423 8.09733 16.445 7.64933 16.445 7.136C16.445 6.632 16.3423 6.18867 16.137 5.806C15.9316 5.414 15.6516 5.11533 15.297 4.91C14.9423 4.69533 14.541 4.588 14.093 4.588ZM23.0502 3.188C23.7502 3.188 24.3476 3.36067 24.8422 3.706C25.3369 4.05133 25.6822 4.50867 25.8782 5.078V0.64H27.4882V11H25.8782V9.208C25.6822 9.77733 25.3369 10.2347 24.8422 10.58C24.3476 10.9253 23.7502 11.098 23.0502 11.098C22.3782 11.098 21.7762 10.9393 21.2442 10.622C20.7216 10.3047 20.3109 9.84733 20.0122 9.25C19.7136 8.65267 19.5642 7.948 19.5642 7.136C19.5642 6.33333 19.7136 5.63333 20.0122 5.036C20.3109 4.43867 20.7216 3.98133 21.2442 3.664C21.7762 3.34667 22.3782 3.188 23.0502 3.188ZM23.5402 4.588C22.8309 4.588 22.2616 4.81667 21.8322 5.274C21.4122 5.722 21.2022 6.34267 21.2022 7.136C21.2022 7.92933 21.4122 8.55467 21.8322 9.012C22.2616 9.46 22.8309 9.684 23.5402 9.684C23.9882 9.684 24.3896 9.58133 24.7442 9.376C25.0989 9.16133 25.3789 8.86267 25.5842 8.48C25.7896 8.09733 25.8922 7.64933 25.8922 7.136C25.8922 6.632 25.7896 6.18867 25.5842 5.806C25.3789 5.414 25.0989 5.11533 24.7442 4.91C24.3896 4.69533 23.9882 4.588 23.5402 4.588Z" fill="#23853B"/>
</svg>
