<svg width="15" height="15" viewBox="0 0 15 15" fill="none" xmlns="http://www.w3.org/2000/svg">
<path d="M10.4298 1.33599L4.78134 6.98443C4.33599 7.42978 4.12509 8.01572 4.19541 8.62501L4.35955 10.5234L6.25794 10.6876H6.44547C6.98449 10.6876 7.50011 10.4766 7.89855 10.0782L13.547 4.45322C14.4141 3.58607 14.4141 2.17978 13.547 1.33603C12.6798 0.468882 11.2735 0.468882 10.4298 1.33603L10.4298 1.33599ZM12.8908 3.79697L12.6563 4.03141L11.5781 2.9532C11.3906 2.76568 11.1094 2.76568 10.9219 2.9532C10.7343 3.14072 10.7343 3.42191 10.9219 3.60945L12.0001 4.68766L7.24226 9.44548C7.00781 9.67992 6.67972 9.79697 6.35159 9.77359L5.22663 9.67991L5.13295 8.55496C5.10957 8.22684 5.22663 7.8987 5.46107 7.66429L11.1095 2.01585C11.3439 1.78141 11.672 1.64081 12.0002 1.64081C12.3283 1.64081 12.6564 1.78141 12.8908 2.01585C13.1253 2.25029 13.2659 2.57839 13.2659 2.90652C13.2657 3.23447 13.125 3.56277 12.8907 3.79702L12.8908 3.79697Z" fill="#23853B"/>
<path d="M13.0079 6.30475C12.8204 6.49227 12.8204 6.77346 13.0079 6.961C13.1016 7.05468 13.2188 7.1016 13.3361 7.1016C13.4533 7.1016 13.5705 7.05468 13.6642 6.961L14.0626 6.56258V10.5236C14.0626 12.4688 12.4688 14.0626 10.5234 14.0626H4.47656C2.53125 14.0626 0.937416 12.4688 0.937416 10.5234V4.47656C0.937416 2.53125 2.53125 0.937416 4.47656 0.937416H9.09375C9.35157 0.937416 9.56246 0.726516 9.56246 0.468708C9.56246 0.2109 9.35156 0 9.09375 0H4.47656C2.01558 0 0 2.01563 0 4.47656V10.5C0 12.9842 2.01563 15 4.47656 15H10.5C12.9842 15 15 12.9844 15 10.5234V5.41406C15 5.15624 14.7891 4.94535 14.5313 4.94535C14.3672 4.94535 14.2501 5.01566 14.1563 5.13288L13.0079 6.30475Z" fill="#23853B"/>
<path d="M5.74228 3.23439L4.54701 4.42966C4.35949 4.61718 4.35949 4.89837 4.54701 5.08591C4.64069 5.17959 4.75791 5.22651 4.87513 5.22651C4.99235 5.22651 5.10957 5.17959 5.20325 5.08591L6.39852 3.89064C6.58604 3.70312 6.58604 3.42193 6.39852 3.23439C6.23454 3.04703 5.92981 3.04703 5.74227 3.23439H5.74228Z" fill="#23853B"/>
</svg>
