<svg width="334" height="200" viewBox="0 0 334 200" fill="none" xmlns="http://www.w3.org/2000/svg">
<path opacity="0.2" fill-rule="evenodd" clip-rule="evenodd" d="M113.867 42.6681C117.406 43.855 120.768 44.0057 123.149 43.1367C122.539 40.6807 120.534 37.9833 117.569 35.7195C118.759 32.1884 118.91 28.8331 118.039 26.4568C115.578 27.0652 112.875 29.0663 110.607 32.0249C107.069 30.838 103.707 30.6873 101.326 31.5564C101.935 34.0124 103.94 36.7097 106.905 38.9735C105.716 42.5046 105.565 45.8599 106.435 48.2362C108.896 47.6279 111.599 45.6267 113.867 42.6681ZM50.463 106.437C53.0305 106.687 55.3179 106.267 56.7859 105.312C55.9929 103.753 54.2224 102.248 51.8735 101.183C52.1242 98.6207 51.7033 96.3378 50.7467 94.8728C49.1843 95.6642 47.676 97.4312 46.6094 99.7754C44.0419 99.5251 41.7545 99.9453 40.2865 100.9C41.0796 102.459 42.85 103.964 45.1989 105.029C44.9482 107.591 45.3692 109.874 46.3257 111.339C47.8881 110.548 49.3964 108.781 50.463 106.437ZM237.361 140.015C235.637 139.557 233.759 138.115 232.199 136.005C229.693 136.797 227.325 136.862 225.66 136.221C226.119 134.5 227.564 132.626 229.678 131.068C228.885 128.568 228.82 126.205 229.462 124.543C231.187 125.001 233.064 126.443 234.625 128.553C237.13 127.761 239.498 127.696 241.163 128.337C240.704 130.058 239.259 131.933 237.145 133.49C237.938 135.99 238.003 138.353 237.361 140.015Z" fill="#23853B"/>
<path d="M196.563 83.0422C196.491 79.7605 196.442 76.6704 196.442 73.6297C196.442 71.9585 195.086 70.602 193.414 70.602C174.94 70.602 160.863 65.2833 149.124 53.8599C147.948 52.7134 146.071 52.7134 144.896 53.8599C133.145 65.285 119.079 70.602 100.606 70.602C98.9344 70.602 97.5779 71.9584 97.5779 73.6297C97.5779 76.6355 97.5779 79.6886 97.4569 83.0074C96.8756 113.11 96.1251 154.287 146.01 171.584C146.654 171.808 147.354 171.808 147.997 171.584C197.884 154.284 197.131 113.107 196.562 83.0412L196.563 83.0422ZM147.003 167.379C100.597 150.76 101.385 112.719 101.976 82.0912C101.976 79.7697 102.064 77.5381 102.088 75.3555C120.339 74.8044 134.7 69.3466 147.017 58.3346C159.284 69.3476 173.695 74.8042 191.945 75.3555C191.945 77.539 192.007 79.7706 192.058 82.0912C192.624 112.719 193.414 150.763 147.006 167.379H147.003Z" fill="#23853B"/>
<path d="M123.391 100.813H111.555C110.812 100.813 110.208 101.417 110.208 102.16V103.552C110.208 104.295 110.812 104.898 111.555 104.898H123.391C124.134 104.898 124.739 104.295 124.739 103.552V102.16C124.738 101.418 124.134 100.813 123.391 100.813Z" fill="#23853B"/>
<path d="M143.12 100.929H131.284C130.541 100.929 129.937 101.532 129.937 102.276V103.668C129.937 104.411 130.541 105.015 131.284 105.015H143.12C143.863 105.015 144.468 104.411 144.468 103.668V102.276C144.467 101.533 143.863 100.929 143.12 100.929Z" fill="#23853B"/>
<path d="M162.848 100.929H151.013C150.269 100.929 149.666 101.532 149.666 102.276V103.668C149.666 104.411 150.269 105.015 151.013 105.015H162.848C163.592 105.015 164.195 104.411 164.195 103.668V102.276C164.197 101.533 163.592 100.929 162.848 100.929Z" fill="#23853B"/>
<path d="M182.461 100.929H170.625C169.882 100.929 169.278 101.532 169.278 102.276V103.668C169.278 104.411 169.882 105.015 170.625 105.015H182.461C183.205 105.015 183.808 104.411 183.808 103.668V102.276C183.808 101.533 183.205 100.929 182.461 100.929Z" fill="#23853B"/>
<path d="M111.979 93.941L112.461 94.6697C112.737 95.0828 113.201 95.2378 113.683 94.9939L116.124 93.5279V96.3588C116.124 96.8711 116.496 97.2426 117.008 97.2426H117.82C118.332 97.2426 118.704 96.8711 118.704 96.3588V93.5279L121.133 94.9864C121.302 95.0988 121.484 95.1574 121.661 95.1574C121.989 95.1574 122.263 94.9599 122.386 94.6395L122.83 93.974C122.999 93.7188 123.045 93.4437 122.961 93.1989C122.885 92.9749 122.711 92.8057 122.473 92.7178L119.933 91.2546L122.48 89.7848C122.836 89.6061 123.057 89.3528 123.103 89.0692C123.135 88.866 123.074 88.6694 122.931 88.5125L122.481 87.8376C122.206 87.4245 121.743 87.2714 121.261 87.5134L118.818 88.9794V86.1485C118.818 85.6362 118.446 85.2666 117.936 85.2666H117.123C116.613 85.2666 116.241 85.6362 116.241 86.1485V88.9794L113.81 87.5209C113.642 87.4084 113.459 87.3489 113.283 87.3489C112.955 87.3489 112.68 87.5465 112.558 87.8678L112.113 88.5333C111.944 88.7885 111.898 89.0635 111.983 89.3093C112.058 89.5314 112.232 89.7006 112.471 89.7885L115.001 91.248L112.314 92.7414C111.831 93.0656 111.798 93.577 111.979 93.9409L111.979 93.941Z" fill="#23853B"/>
<path d="M131.967 89.7886L134.507 91.2537L131.96 92.7226C131.558 92.923 131.411 93.5799 131.593 93.941L132.075 94.6698C132.262 94.9515 132.537 95.1065 132.849 95.1065C132.993 95.1065 133.142 95.0715 133.295 94.994L135.738 93.5279V96.3589C135.738 96.8712 136.11 97.2426 136.62 97.2426H137.433C137.944 97.2426 138.315 96.8712 138.315 96.3589V93.5279L140.746 94.9864C140.915 95.0989 141.097 95.1575 141.274 95.1575C141.602 95.1575 141.876 94.96 141.999 94.6395L142.443 93.9741C142.612 93.7189 142.658 93.4438 142.574 93.199C142.497 92.9769 142.325 92.8058 142.087 92.7179L139.547 91.2546L142.125 89.764C142.609 89.4417 142.643 88.9294 142.462 88.5645L141.978 87.8357C141.703 87.4227 141.24 87.2676 140.759 87.5115L138.315 88.9776V86.1467C138.315 85.6343 137.944 85.2648 137.433 85.2648H136.62C136.11 85.2648 135.738 85.6343 135.738 86.1467V88.9776L133.307 87.5191C133.139 87.4066 132.956 87.3471 132.78 87.3471C132.452 87.3471 132.178 87.5446 132.055 87.866L131.61 88.5314C131.441 88.7867 131.395 89.0617 131.48 89.3075C131.557 89.5296 131.729 89.6988 131.967 89.7886L131.967 89.7886Z" fill="#23853B"/>
<path d="M151.814 89.5563L154.352 91.0214L151.773 92.5111C151.289 92.8334 151.257 93.3457 151.439 93.7115L151.921 94.4394C152.196 94.8543 152.662 95.0075 153.14 94.7636L155.584 93.2985V96.1294C155.584 96.6398 155.953 97.0113 156.466 97.0113H157.279C157.791 97.0113 158.16 96.6398 158.16 96.1294V93.2985L160.592 94.7551C160.76 94.8675 160.942 94.9271 161.12 94.9271C161.446 94.9271 161.72 94.7295 161.845 94.4091L162.288 93.7427C162.457 93.4894 162.504 93.2143 162.42 92.9676C162.342 92.7427 162.166 92.5716 161.925 92.4856L159.534 91.2416L162.09 89.7661C162.574 89.4438 162.608 88.9315 162.424 88.5666L161.942 87.8379C161.667 87.4248 161.204 87.2698 160.723 87.5137L158.279 88.9797V86.1488L158.27 86.076C158.104 85.4134 157.744 85.0325 157.28 85.0325H156.467C155.955 85.0325 155.585 85.404 155.585 85.9144V88.7453L153.154 87.2887C152.986 87.1762 152.804 87.1167 152.626 87.1167C152.3 87.1167 152.026 87.3142 151.901 87.6356L151.459 88.301C151.29 88.5562 151.243 88.8313 151.327 89.0761C151.402 89.2973 151.574 89.4684 151.814 89.5563L151.814 89.5563Z" fill="#23853B"/>
<path d="M171.535 94.6694C171.722 94.951 171.998 95.1061 172.309 95.1061C172.454 95.1061 172.602 95.0711 172.756 94.9936L175.199 93.5275V96.3584C175.199 96.8708 175.569 97.2422 176.081 97.2422H176.894C177.404 97.2422 177.776 96.8707 177.776 96.3584V93.5275L180.207 94.986C180.375 95.0985 180.558 95.1571 180.734 95.1571C181.062 95.1571 181.337 94.9595 181.459 94.6391L181.904 93.9737C182.072 93.7184 182.118 93.4434 182.034 93.1976C181.959 92.9783 181.787 92.8091 181.553 92.7193L179.222 91.2627L181.819 89.7636C182.303 89.4413 182.337 88.929 182.154 88.5641L181.672 87.8353C181.397 87.4223 180.932 87.2672 180.453 87.5111L178.011 88.9772V86.1463C178.011 85.6339 177.64 85.2644 177.127 85.2644H176.314C175.804 85.2644 175.433 85.6339 175.433 86.1463V88.9772L173.001 87.5187C172.833 87.4062 172.651 87.3467 172.474 87.3467C172.146 87.3467 171.872 87.5442 171.749 87.8656L171.305 88.531C171.135 88.7863 171.089 89.0613 171.173 89.3071C171.251 89.5292 171.424 89.6984 171.661 89.7863L174.199 91.2514L171.677 92.7052C171.305 92.7931 171.03 93.0218 170.94 93.3215C170.868 93.5597 170.924 93.8121 171.084 93.9926L171.535 94.6694Z" fill="#23853B"/>
<path d="M158.178 124.53H156.082V122.423C156.082 117.42 152.01 113.35 147.009 113.35C142.006 113.35 137.936 117.42 137.936 122.423V124.519H135.839C134.942 124.519 134.212 125.25 134.212 126.147V143.511C134.212 144.408 134.942 145.139 135.839 145.139H158.178C159.067 145.139 159.797 144.416 159.806 143.522V126.158C159.805 125.26 159.075 124.53 158.178 124.53L158.178 124.53ZM147.009 116.604C150.216 116.604 152.829 119.216 152.829 122.423V124.519H141.19V122.423C141.19 119.216 143.8 116.604 147.009 116.604ZM156.551 127.783V141.893H137.466V127.783H156.551Z" fill="#23853B"/>
</svg>
