<svg width="12" height="13" viewBox="0 0 12 13" fill="none" xmlns="http://www.w3.org/2000/svg">
<path d="M8.45258 6.44216C9.19995 5.77374 9.64324 4.82999 9.68041 3.82798C9.7176 2.82601 9.34556 1.8519 8.6498 1.12984C7.95406 0.407922 6.99457 0 5.99187 0C4.98916 0 4.02967 0.407958 3.33393 1.12984C2.6382 1.8519 2.26616 2.82597 2.30333 3.82798C2.34052 4.82995 2.78379 5.77374 3.53116 6.44216C2.50029 6.80319 1.607 7.47518 0.974507 8.36557C0.342009 9.25583 0.00157456 10.3206 0 11.4129C0 11.6384 0.120439 11.847 0.315828 11.9599C0.511216 12.0726 0.751945 12.0726 0.947337 11.9599C1.14287 11.847 1.26316 11.6385 1.26316 11.4129C1.26431 10.3494 1.68727 9.32979 2.43922 8.57785C3.19116 7.8259 4.21074 7.40293 5.27409 7.4018H6.72591C7.78939 7.40294 8.80898 7.8259 9.56092 8.57785C10.3129 9.32979 10.7358 10.3494 10.737 11.4129C10.737 11.6384 10.8573 11.847 11.0527 11.9599C11.248 12.0726 11.4889 12.0726 11.6843 11.9599C11.8797 11.847 12 11.6385 12 11.4129C11.9974 10.3186 11.6546 9.25242 11.0189 8.36188C10.3832 7.47133 9.48638 6.80031 8.45251 6.44216H8.45258ZM5.9919 1.29517C6.63257 1.29517 7.2469 1.54963 7.69994 2.00262C8.15308 2.45562 8.40754 3.0701 8.40754 3.71077C8.40754 4.35143 8.15307 4.96577 7.69994 5.4188C7.24694 5.8718 6.6326 6.12626 5.9919 6.12626C5.3512 6.12626 4.7369 5.87179 4.28387 5.4188C3.83073 4.9658 3.57627 4.35147 3.57627 3.71077C3.57627 3.07007 3.83073 2.45562 4.28387 2.00262C4.73687 1.54963 5.3512 1.29517 5.9919 1.29517Z" fill="#23853B"/>
</svg>
