<svg width="20" height="21" viewBox="0 0 20 21" fill="none" xmlns="http://www.w3.org/2000/svg">
<path d="M19.7917 16.8814C19.2423 18.5053 16.9129 20.0924 15.7999 20.0126C12.5477 19.7797 8.64077 18.1513 5.25258 14.7629C1.86387 11.3746 0.235756 7.4678 0.00291433 4.2156C-0.0768761 3.10257 1.49475 0.7574 3.11862 0.208059C4.29602 -0.190227 5.09192 -0.0665079 5.65337 1.01738L7.02706 3.56579C7.36147 4.18616 7.11963 4.66877 6.38425 5.20308C4.7698 6.37641 4.45089 6.94549 5.25459 8.38534C6.00475 9.7288 6.89572 10.6908 8.10222 11.8975C9.30895 13.1043 10.271 13.9952 11.6144 14.7454C13.0543 15.5494 13.6233 15.2304 14.7967 13.6157C15.331 12.8806 15.8136 12.6385 16.434 12.9731L18.9824 14.3468C20.0665 14.9083 20.1902 15.7044 19.7919 16.8816L19.7917 16.8814ZM11.3663 2.41977C11.375 2.41909 11.384 2.41909 11.3927 2.41977C13.0455 2.41909 14.6306 3.07692 15.7972 4.24779C16.9636 5.41865 17.6158 7.00597 17.6091 8.65875C17.6082 8.91673 17.7097 9.1644 17.8915 9.34752C18.0733 9.53041 18.3203 9.63374 18.5782 9.63486H18.5816C18.8391 9.63486 19.0859 9.53288 19.2681 9.35111C19.4506 9.16956 19.5535 8.92301 19.5544 8.66572C19.5627 6.49074 18.7022 4.40222 17.1642 2.86419C15.6262 1.32639 13.5377 0.465946 11.3627 0.474496C11.0155 0.475616 10.6954 0.661647 10.5224 0.96266C10.3496 1.26367 10.3502 1.63416 10.5242 1.93454C10.6981 2.23488 11.0191 2.41978 11.3662 2.41956L11.3663 2.41977ZM11.366 6.47751C11.3752 6.47684 11.3844 6.47751 11.3927 6.47751H11.3925C11.9685 6.47594 12.5215 6.70546 12.9271 7.11453C13.3328 7.52357 13.5576 8.07831 13.5513 8.65433C13.5493 8.91231 13.6497 9.16043 13.8306 9.34442C14.0115 9.52821 14.258 9.63266 14.516 9.6349H14.5243C14.7807 9.63468 15.0268 9.53337 15.2088 9.35271C15.391 9.17184 15.4944 8.92663 15.4964 8.6702C15.5096 7.56905 15.0766 6.50956 14.2959 5.73271C13.5134 4.9608 12.4576 4.52931 11.3582 4.53224C11.0117 4.53493 10.6927 4.72186 10.521 5.02287C10.3493 5.32388 10.3509 5.69368 10.5248 5.99337C10.699 6.29304 11.0193 6.4775 11.3658 6.4775L11.366 6.47751Z" fill="#23853B"/>
</svg>
